<svg
  xmlns="http://www.w3.org/2000/svg"
  viewBox="0 0 24 24"
  width="24"
  height="24"
  fill="red"
>
  <path d="M9 3h6c.55 0 1 .45 1 1v1h4c.55 0 1 .45 1 1s-.45 1-1 1h-.72l-1.08 13.06c-.12 1.47-1.33 2.64-2.82 2.64H8.62c-1.5 0-2.7-1.17-2.82-2.64L4.72 7H4c-.55 0-1-.45-1-1s.45-1 1-1h4V4c0-.55.45-1 1-1zm6 3H9v13c0 .55.45 1 1 1h4c.55 0 1-.45 1-1V6zm-3.5 3c.28 0 .5.22.5.5v8a.5.5 0 1 1-1 0v-8c0-.28.22-.5.5-.5zm3 0c.28 0 .5.22.5.5v8a.5.5 0 1 1-1 0v-8c0-.28.22-.5.5-.5zm-6 0c.28 0 .5.22.5.5v8a.5.5 0 1 1-1 0v-8c0-.28.22-.5.5-.5z" />
  <rect x="8" y="2" width="8" height="1.5" rx="0.75" fill="red" />
</svg>
